<?xml version="1.0" standalone="no"?>
<!DOCTYPE svg PUBLIC "-//W3C//DTD SVG 20010904//EN"
 "http://www.w3.org/TR/2001/REC-SVG-20010904/DTD/svg10.dtd">
<svg version="1.0" xmlns="http://www.w3.org/2000/svg"
 width="1024.000000pt" height="1024.000000pt" viewBox="0 0 1024.000000 1024.000000"
 preserveAspectRatio="xMidYMid meet">

<g transform="translate(0.000000,1024.000000) scale(0.100000,-0.100000)"
fill="#000000" stroke="none">
<path d="M3745 9170 l-1600 -6 -100 -23 c-105 -24 -256 -77 -340 -119 -87 -43
-167 -103 -264 -197 -207 -200 -334 -426 -397 -706 -16 -68 -17 -302 -16
-2984 l0 -2910 21 -102 c50 -244 155 -448 340 -660 180 -206 455 -343 791
-395 133 -20 5864 -12 5968 9 263 52 518 184 665 344 244 265 370 543 396 877
12 160 3 5679 -10 5776 -12 91 -54 243 -94 336 -138 329 -440 600 -785 704
-210 63 -123 60 -1615 61 -748 0 -2080 -2 -2960 -5z m1326 -886 c14 -13 19
-34 21 -103 l3 -86 355 -5 355 -5 16 -33 c13 -26 17 -69 18 -220 2 -174 0
-190 -18 -213 l-19 -24 -354 -5 -353 -5 -3 -160 -2 -161 72 -17 c87 -20 198
-71 270 -125 103 -76 213 -214 269 -338 27 -59 59 -203 59 -264 0 -35 28 -68
60 -72 50 -7 50 -4 50 -249 0 -126 -4 -229 -8 -229 -4 0 -118 50 -252 111
-398 180 -556 249 -586 255 -23 4 -111 -31 -424 -171 -379 -170 -441 -197
-448 -196 -2 1 -4 376 -2 461 0 6 15 10 33 10 53 0 77 24 77 75 0 61 25 175
56 253 100 253 281 413 532 472 l52 12 0 506 c0 279 4 512 8 518 25 37 126 42
163 8z m110 -2280 c325 -149 1094 -500 1544 -705 264 -121 485 -226 492 -235
13 -18 7 -70 -11 -93 -31 -40 7 -39 -2206 -41 -1174 -2 -2143 -2 -2153 -1 -54
4 -89 98 -49 134 20 19 149 79 822 385 261 118 675 307 920 418 245 112 457
203 471 203 15 1 91 -29 170 -65z m-1447 -1336 c18 -26 22 -119 6 -149 -7 -12
-21 -19 -39 -19 -16 0 -31 -6 -33 -12 -6 -19 10 -1478 17 -1515 5 -27 12 -34
44 -43 27 -7 41 -17 45 -33 10 -36 7 -132 -5 -166 l-11 -31 -347 2 -346 3 -3
85 c-4 116 0 127 48 140 29 8 41 17 44 33 3 12 7 148 10 302 3 154 11 491 17
749 5 258 6 472 2 477 -4 4 -24 9 -43 11 l-35 3 -3 66 c-2 54 1 70 18 92 l21
27 289 0 c287 0 289 0 304 -22z m1046 3 c14 -27 13 -144 -2 -159 -7 -7 -24
-12 -39 -12 -15 0 -30 -4 -33 -8 -5 -9 8 -902 20 -1319 l6 -233 39 -10 c47
-13 51 -25 47 -140 l-3 -85 -335 -5 c-216 -3 -339 -1 -346 5 -7 6 -15 46 -18
90 -7 89 5 128 41 133 39 6 44 25 49 184 12 365 34 1214 34 1297 l0 91 -35 0
c-46 0 -58 25 -53 103 3 43 10 63 23 73 15 11 79 14 307 14 274 0 288 -1 298
-19z m1042 2 c14 -13 18 -31 18 -94 l0 -78 -37 -3 -38 -3 3 -425 c5 -597 20
-1110 33 -1127 6 -7 20 -13 30 -13 40 0 50 -26 47 -129 l-3 -96 -352 -3 -351
-2 -4 97 c-2 54 -2 104 0 110 2 7 19 15 38 19 18 3 38 11 43 18 10 12 43 1519
34 1544 -3 6 -22 12 -43 12 -34 0 -38 3 -44 31 -11 55 -7 93 14 127 l20 32
287 0 c252 0 289 -2 305 -17z m1943 -12 c22 -10 52 -31 67 -47 58 -62 58 -59
58 -594 0 -543 1 -530 -65 -589 -68 -59 -75 -60 -427 -67 l-323 -7 -243 -239
c-144 -141 -250 -238 -262 -238 -43 0 -47 18 -54 252 -4 122 -10 226 -12 230
-3 5 -49 8 -102 8 -115 0 -157 19 -207 88 l-30 44 -3 521 c-3 591 -7 557 79
614 41 27 49 28 198 34 86 3 410 6 721 7 531 1 567 0 605 -17z m-605 -2181
c18 -18 20 -33 20 -172 0 -142 -1 -153 -22 -175 l-21 -23 -2168 0 -2168 0 -20
26 c-19 24 -21 40 -21 169 0 129 2 145 21 169 l20 26 2170 0 c2156 0 2169 0
2189 -20z"/>
</g>
</svg>
